# xmcd CD database file
#
# Track frame offsets:
#	150
#	2747
#	13474
#	25207
#	36039
#	38890
#	43056
#	54873
#	65552
#	67254
#	79208
#	93076
#	95591
#	114399
#	122732
#	134904
#	146207
#	156095
#	167576
#	175801
#
# Disc length: 2489 seconds
#
# Revision: 0
# Processed by: cddbd v1.5.2PL0 Copyright (c) Steve Scherf et al.
# Submitted via: CDex 1.70beta2
#
DISCID=1a09b714
DTITLE=Buck Owens - Buck Owens "Live" In Scandinavia
DYEAR=2008
DGENRE=Country
TTITLE0=Don Rich and the Buckaroos - Opening Announcement by Gunner Eide - (Live i Oslo 1970)
TTITLE1=Don Rich and the Buckaroos - Up On Cripple Creek - (Live i Oslo 1970)
TTITLE2=Don Rich and the Buckaroos - Okie from Muskogee - (Live i Oslo 1970)
TTITLE3=Don Rich and the Buckaroos - The Night They Drove Old Dixie Down - (Live i Oslo 1970)
TTITLE4=Don Rich and the Buckaroos - Buckaroo - (Live i Oslo 1970)
TTITLE5=Murray Kash - Introduces Buddy Alan - (Live i Oslo 1970)
TTITLE6=Buddy Alan - Freedom Man - (Live i Oslo 1970)
TTITLE7=Buddy Alan - Big Mama's Medicine Show - (Live i Oslo 1970)
TTITLE8=Murray Kash - Introduced the Hagers - (Live i Oslo 1970)
TTITLE9=The Hagers - I'm Jesse James - (Live i Oslo 1970)
TTITLE10=The Hagers - Six Days On the Road - (Live i Oslo 1970)
TTITLE11=Buck Owens - Murray Kash Introduces Buck Owens - (Live i Oslo 1970)
TTITLE12=Medley: Act Naturally - Together Again - (Live i Oslo 1970)
TTITLE13=Buck Owens - Gunner Bide Wishes Buck Owens Welcome - (Live i Oslo 1970)
TTITLE14=Medley: Love's Gonna Live Here - Cryin' Time - Sam's Place - (Live i Oslo 1970)
TTITLE15=Buck Owens - Medley: I've Got a Tiger By the Tail - Open Up Your Heart - (Live i Oslo 1970)
TTITLE16=Buck Owens - Orange Blossom Special - (Live i Oslo 1970)
TTITLE17=Buck Owens with Buddy Alan - Let the World Keep On a Turnin' - (Live i Oslo 1970)
TTITLE18=Buck Owens with Buddy Alan, the Hagers and Don Rich - Tall Dark Stranger - (Live i Oslo 1970)
TTITLE19=Buck Owens with Buddy Alan, the Hagers and Don Rich - Johnny B. Goode - (Live i Oslo 1970)
EXTD=YEAR: 2008
EXTT0=
EXTT1=
EXTT2=
EXTT3=
EXTT4=
EXTT5=
EXTT6=
EXTT7=
EXTT8=
EXTT9=
EXTT10=
EXTT11=
EXTT12=
EXTT13=
EXTT14=
EXTT15=
EXTT16=
EXTT17=
EXTT18=
EXTT19=
PLAYORDER=
